<?xml version="1.0" encoding="iso-8859-1"?>
<!-- Uploaded to: SVG Repo, www.svgrepo.com, Generator: SVG Repo Mixer Tools -->
<svg height="800px" width="800px" version="1.1" id="Layer_1" xmlns="http://www.w3.org/2000/svg" xmlns:xlink="http://www.w3.org/1999/xlink" 
	 viewBox="0 0 512 512" xml:space="preserve">
<path style="fill:#ECEDEF;" d="M350.063,0H42.221c-4.427,0-8.017,3.589-8.017,8.017v401.904c0,4.427,3.589,8.017,8.017,8.017
	h307.841c4.427,0,8.017-3.589,8.017-8.017V8.017C358.079,3.589,354.49,0,350.063,0z"/>
<path style="fill:#D9DCDF;" d="M34.205,153.386v256.534c0,4.427,3.589,8.017,8.017,8.017h307.841c4.427,0,8.017-3.589,8.017-8.017
	V153.386H34.205z"/>
<path style="fill:#ECEDEF;" d="M503.983,171.023H76.426c-4.427,0-8.017,3.589-8.017,8.017v290.739c0,4.427,3.589,8.017,8.017,8.017
	h427.557c4.427,0,8.017-3.589,8.017-8.017V179.04C512,174.612,508.411,171.023,503.983,171.023z"/>
<path style="fill:#FFC44F;" d="M435.574,213.779H187.056v-43.29c0-13.851-11.268-25.119-25.119-25.119H25.119
	C11.268,145.37,0,156.638,0,170.489v316.392C0,500.732,11.268,512,25.119,512h410.455c13.851,0,25.119-11.268,25.119-25.119V238.898
	C460.693,225.047,449.425,213.779,435.574,213.779z"/>
<path style="fill:#F7B14D;" d="M452.142,495.432H41.687c-13.851,0-25.119-11.268-25.119-25.119V153.921
	c0-2.586,0.393-5.08,1.122-7.429C7.454,149.666,0,159.223,0,170.489v316.392C0,500.732,11.268,512,25.119,512h410.455
	c11.265,0,20.822-7.454,23.997-17.69C457.222,495.039,454.728,495.432,452.142,495.432z"/>
<g>
	<path style="fill:#B3B9BF;" d="M298.756,67.34h-76.96c-4.427,0-8.017-3.589-8.017-8.017s3.589-8.017,8.017-8.017h76.96
		c4.427,0,8.017,3.589,8.017,8.017S303.183,67.34,298.756,67.34z"/>
	<path style="fill:#B3B9BF;" d="M298.756,101.545H93.528c-4.427,0-8.017-3.589-8.017-8.017c0-4.427,3.589-8.017,8.017-8.017h205.228
		c4.427,0,8.017,3.589,8.017,8.017C306.772,97.956,303.183,101.545,298.756,101.545z"/>
	<path style="fill:#B3B9BF;" d="M298.756,135.749H93.528c-4.427,0-8.017-3.589-8.017-8.017c0-4.427,3.589-8.017,8.017-8.017h205.228
		c4.427,0,8.017,3.589,8.017,8.017C306.772,132.16,303.183,135.749,298.756,135.749z"/>
</g>
<g>
	<path style="fill:#68727E;" d="M93.524,417.937c-1.81,0-3.629-0.609-5.127-1.858c-3.401-2.835-3.861-7.889-1.026-11.291
		l42.756-51.307c2.835-3.401,7.888-3.861,11.291-1.026c3.401,2.835,3.861,7.89,1.026,11.291l-42.756,51.307
		C98.101,416.955,95.821,417.937,93.524,417.937z"/>
	<path style="fill:#68727E;" d="M204.693,383.733c-2.051,0-4.103-0.782-5.668-2.348l-25.653-25.653
		c-3.131-3.131-3.131-8.207,0-11.337c3.131-3.131,8.207-3.131,11.337,0l25.653,25.653c3.131,3.131,3.131,8.207,0,11.337
		C208.797,382.95,206.744,383.733,204.693,383.733z"/>
	<path style="fill:#68727E;" d="M247.442,383.733c-1.613,0-3.241-0.485-4.653-1.493c-3.603-2.574-4.437-7.581-1.864-11.183
		l42.756-59.858c2.574-3.603,7.581-4.437,11.183-1.864c3.603,2.574,4.437,7.581,1.864,11.183l-42.756,59.858
		C252.407,382.567,249.943,383.733,247.442,383.733z"/>
	<path style="fill:#68727E;" d="M367.169,375.182c-2.297,0-4.577-0.981-6.163-2.885L318.25,320.99
		c-2.835-3.401-2.375-8.456,1.026-11.291c3.399-2.835,8.456-2.376,11.291,1.026l42.756,51.307c2.835,3.401,2.375,8.456-1.026,11.291
		C370.798,374.572,368.979,375.182,367.169,375.182z"/>
</g>
<g>
	<path style="fill:#C6803F;" d="M76.426,393.353c-18.566,0-33.67,15.105-33.67,33.67c0,18.566,15.105,33.67,33.67,33.67
		s33.67-15.105,33.67-33.67C110.096,408.457,94.992,393.353,76.426,393.353z"/>
	<path style="fill:#C6803F;" d="M153.386,307.841c-18.566,0-33.67,15.105-33.67,33.67c0,18.566,15.105,33.67,33.67,33.67
		s33.67-15.105,33.67-33.67C187.056,322.946,171.952,307.841,153.386,307.841z"/>
	<path style="fill:#C6803F;" d="M230.347,359.148c-18.566,0-33.67,15.105-33.67,33.67c0,18.566,15.105,33.67,33.67,33.67
		s33.67-15.105,33.67-33.67C264.017,374.253,248.912,359.148,230.347,359.148z"/>
	<path style="fill:#C6803F;" d="M307.307,265.086c-18.566,0-33.67,15.105-33.67,33.67c0,18.566,15.105,33.67,33.67,33.67
		c18.566,0,33.67-15.105,33.67-33.67C340.977,280.19,325.872,265.086,307.307,265.086z"/>
	<path style="fill:#C6803F;" d="M384.267,359.148c-18.566,0-33.67,15.105-33.67,33.67c0,18.566,15.105,33.67,33.67,33.67
		c18.566,0,33.67-15.105,33.67-33.67C417.937,374.253,402.833,359.148,384.267,359.148z"/>
</g>
</svg>